# xmcd
#
# Track frame offsets:
#	150
#	12647
#	22312
#	35108
#	50280
#	62031
#	76186
#	90517
#	105037
#	121587
#	137119
#	149777
#	164474
#	177192
#	194006
#
# Disc length: 2787 seconds
#
# Revision: 1
# Processed by: cddbd v1.5.1PL0 Copyright (c) Steve Scherf et al.
# Submitted via: audiograbber 1.83.01
#
DISCID=cf0ae10f
DTITLE=Mitterling Buam - Junges Leben frei und stark
DYEAR=1999
DGENRE=Volksmusik
TTITLE0=Junges Leben - Frei und stark
TTITLE1=Stub´n Musi Boarischer
TTITLE2=He Jo ruft´s aus den Bergen
TTITLE3=Marie Ellen
TTITLE4=Mitterling Polka
TTITLE5=Wie ein Engel
TTITLE6=Die Resi von der hohen Alm
TTITLE7=Des muass doch Liebe sein
TTITLE8=Der alte Holzknecht
TTITLE9=Ich will dich immer Lieben
TTITLE10=Sonnwendbrenna
TTITLE11=Schenk´ mir noch einmal eine weisse Rose
TTITLE12=Mei Hoamat´l
TTITLE13=Du ich steh´ auf dich
TTITLE14=Wo die kühnste Alpenstrasse führt
EXTD=
EXTT0=
EXTT1=
EXTT2=
EXTT3=
EXTT4=
EXTT5=
EXTT6=
EXTT7=
EXTT8=
EXTT9=
EXTT10=
EXTT11=
EXTT12=
EXTT13=
EXTT14=
PLAYORDER=
